<svg xmlns="http://www.w3.org/2000/svg" version="1.1" xmlns:xlink="http://www.w3.org/1999/xlink" xmlns:svgjs="http://svgjs.dev/svgjs" viewBox="0 0 800 800"><defs><linearGradient x1="50%" y1="0%" x2="50%" y2="100%" id="ccchaos-grad"><stop stop-color="hsl(206, 75%, 49%)" stop-opacity="1" offset="0%"></stop><stop stop-color="hsl(331, 90%, 56%)" stop-opacity="1" offset="100%"></stop></linearGradient></defs><g stroke-width="2" stroke="url(#ccchaos-grad)" fill="none" stroke-linecap="round"><path d="M388.22 100.4C397.82 101.54 407.52 103.65 417.33 106.63 427.17 109.96 437.14 113.98 447.23 118.57 457.37 123.23 467.67 128.27 478.12 133.59 488.65 138.71 499.35 143.96 510.18 149.27 521.09 154.21 532.13 159.15 543.23 164.06 554.34 168.54 565.43 173.01 576.4 177.47 587.22 181.55 597.76 185.7 607.86 189.95 617.56 193.93 626.61 198.1 634.81 202.5 642.33 206.76 648.79 211.33 654.03 216.24 658.39 221.11 661.43 226.38 663.08 232.04 663.89 237.74 663.43 243.87 661.8 250.41 659.73 257.02 656.88 264.03 653.48 271.43 650.38 278.89 647.32 286.71 644.61 294.85 643.03 303.04 642.33 311.52 642.72 320.25 644.79 329.01 648.14 338 652.74 347.17 658.87 356.36 665.93 365.72 673.58 375.22 681.85 384.73 689.72 394.16 696.78 403.5 703.24 412.85 708.15 422.13 711.29 431.35 713.02 440.61 712.68 449.85 710.3 459.07 706.39 468.39 700.63 477.75 693.25 487.17 684.79 496.74 675.18 506.44 664.74 516.25 653.94 526.27 642.8 536.45 631.58 546.78 620.63 557.31 609.93 567.97 599.64 578.71 589.97 589.56 580.81 600.39 572.18 611.1 564.24 621.72 556.75 632.03 549.65 641.88 543.12 651.33 536.81 660.08 530.62 667.94 524.8 675.09 518.93 681.11 512.92 685.86 507.1 689.67 501 692.09 494.59 693.07 488.22 693.11 481.45 691.81 474.27 689.23 467.07 686.08 459.42 681.98 451.32 677.16 443.19 672.42 434.62 667.45 425.62 662.52 416.61 658.41 407.18 654.83 397.37 651.97 387.56 650.48 377.62 649.94 367.61 650.31 357.63 652 347.6 654.36 337.57 657.21 327.6 660.86 317.66 664.56 307.81 668.07 298.05 671.7 288.41 674.69 278.97 676.84 269.65 678.55 260.56 679.12 251.77 678.49 243.15 677.09 234.87 674.39 226.99 670.45 219.33 665.69 212.1 659.78 205.35 652.83 198.83 645.23 192.8 636.78 187.29 627.64 181.96 618.09 177.13 608.05 172.79 597.66 168.54 587.11 164.71 576.35 161.3 565.5 157.83 554.65 154.68 543.79 151.82 532.99 148.77 522.28 145.91 511.65 143.23 501.14 140.25 490.73 137.39 480.43 134.67 470.24 131.62 460.14 128.71 450.13 125.97 440.21 122.98 430.34 120.24 420.53 117.81 410.79 115.3 401.07 113.22 391.4 111.66 381.8 110.22 372.2 109.46 362.88 109.41 353.86 109.64 344.83 110.63 336.11 112.38 327.7 114.47 319.3 117.31 311.22 120.85 303.49 124.68 295.77 129.15 288.4 134.18 281.4 139.37 274.4 145.03 267.75 151.08 261.47 157.13 255.15 163.46 249.17 170.01 243.52 176.41 237.77 182.96 232.29 189.62 227.06 196.04 221.66 202.54 216.42 209.11 211.34 215.41 205.98 221.8 200.69 228.29 195.45 234.54 189.86 240.92 184.27 247.46 178.66 253.82 172.69 260.39 166.7 267.18 160.73 273.85 154.46 280.79 148.27 288 142.25 295.15 136.08 302.6 130.21 310.36 124.73 318.07 119.36 326.11 114.55 334.46 110.43 342.79 106.66 351.43 103.73 360.4 101.73 369.35 100.26 378.62 99.8 388.21 100.4" stroke-dasharray="9 7" transform="rotate(0, 400, 400)" opacity="0.86"></path><path d="M393.33 111C402.67 112.13 412.15 114.17 421.74 117.06 431.36 120.28 441.12 124.18 451.01 128.64 460.94 133.19 471.03 138.13 481.24 143.36 491.5 148.43 501.9 153.65 512.38 158.96 522.9 163.94 533.47 168.94 544.02 173.92 554.52 178.5 564.91 183.08 575.09 187.64 585.05 191.84 594.65 196.08 603.72 200.4 612.37 204.43 620.3 208.62 627.37 212.99 633.79 217.19 639.16 221.65 643.39 226.4 647.95 233.58 650 249.71 647.86 258.72 645.84 264.89 643.19 271.45 640.16 278.37 637.52 285.33 635 292.64 632.87 300.28 631.84 307.96 631.63 315.94 632.44 324.19 634.76 332.46 638.24 340.98 642.82 349.73 648.77 358.48 655.51 367.44 662.77 376.6 670.59 385.76 678.04 394.9 684.75 404.01 690.94 413.13 695.75 422.24 698.95 431.34 700.92 440.48 701 449.64 699.21 458.82 696.02 468.1 691.08 477.45 684.58 486.87 677.04 496.43 668.32 506.11 658.71 515.9 648.64 525.85 638.11 535.93 627.37 546.11 616.74 556.43 606.21 566.81 595.94 577.2 586.14 587.62 576.73 597.94 567.76 608.04 559.38 617.99 551.41 627.55 543.81 636.59 536.73 645.19 529.91 653.06 523.27 660.02 516.99 666.29 510.75 671.48 504.46 675.45 498.38 678.56 492.13 680.39 485.65 680.89 479.27 680.6 472.57 679.08 465.53 676.44 458.51 673.33 451.11 669.4 443.33 664.84 435.54 660.4 427.35 655.78 418.78 651.19 410.19 647.39 401.23 644.06 391.92 641.36 382.61 639.92 373.19 639.32 363.72 639.54 354.26 640.97 344.78 643.01 335.32 645.51 325.9 648.78 316.54 652.12 307.29 655.33 298.12 658.72 289.1 661.58 280.28 663.73 271.59 665.54 263.14 666.37 254.99 666.12 247.01 665.23 239.38 663.16 232.14 659.95 225.09 656 218.46 650.96 212.3 644.92 206.32 638.26 200.81 630.74 195.78 622.51 190.9 613.85 186.46 604.65 182.47 595.03 178.53 585.19 174.97 575.08 171.77 564.81 168.48 554.48 165.47 544.07 162.71 533.67 159.74 523.29 156.93 512.96 154.28 502.71 151.32 492.53 148.47 482.44 145.73 472.45 142.68 462.53 139.75 452.71 136.99 442.99 133.99 433.32 131.22 423.73 128.76 414.24 126.21 404.76 124.09 395.37 122.47 386.07 120.96 376.78 120.12 367.79 119.97 359.12 120.09 350.45 120.96 342.09 122.56 334.06 124.5 326.02 127.17 318.31 130.54 310.94 134.2 303.56 138.49 296.52 143.35 289.82 148.39 283.1 153.89 276.71 159.8 270.65 165.74 264.53 171.98 258.7 178.45 253.16 184.81 247.49 191.34 242.05 197.99 236.82 204.44 231.39 210.97 226.1 217.57 220.93 223.93 215.48 230.37 210.08 236.89 204.71 243.18 199.02 249.58 193.31 256.11 187.61 262.45 181.58 268.97 175.55 275.68 169.56 282.25 163.32 289.06 157.2 296.12 151.25 303.08 145.22 310.33 139.5 317.85 134.18 325.33 129 333.11 124.39 341.19 120.44 349.24 116.85 357.61 114.07 366.3 112.19 374.97 110.81 383.98 110.41 393.32 111" stroke-dasharray="1 4" transform="rotate(4.04, 400, 400)" opacity="0.95"></path><path d="M398.86 121.61C407.94 122.71 417.17 124.69 426.51 127.47 435.88 130.59 445.38 134.36 455 138.68 464.65 143.11 474.43 147.93 484.3 153.05 494.2 158.06 504.19 163.23 514.2 168.51 524.2 173.51 534.19 178.55 544.08 183.58 553.87 188.26 563.47 192.93 572.77 197.59 581.82 201.91 590.43 206.25 598.46 210.65 606.05 214.76 612.91 219 618.9 223.38 626.49 229.76 635.46 243.56 636.73 251.13 636.7 256.24 635.74 261.69 633.96 267.49 632.07 273.3 629.7 279.46 627.07 285.97 624.91 292.5 622.92 299.37 621.34 306.57 620.82 313.78 621.08 321.31 622.24 329.12 624.8 336.94 628.36 345.04 632.9 353.39 638.65 361.73 645.09 370.33 651.96 379.16 659.35 387.99 666.38 396.85 672.73 405.72 678.65 414.6 683.33 423.52 686.58 432.47 688.73 441.46 689.18 450.5 687.92 459.6 685.39 468.78 681.22 478.04 675.57 487.39 668.92 496.85 661.09 506.42 652.33 516.08 643.05 525.85 633.21 535.71 623.04 545.63 612.85 555.61 602.62 565.61 592.52 575.53 582.75 585.42 573.25 595.13 564.09 604.56 555.41 613.77 547.08 622.55 539.09 630.74 531.57 638.49 524.3 645.48 517.24 651.58 510.54 657.02 503.93 661.41 497.34 664.67 490.97 667.15 484.52 668.46 477.93 668.56 471.45 667.97 464.75 666.31 457.79 663.64 450.87 660.61 443.65 656.86 436.12 652.57 428.59 648.43 420.72 644.14 412.53 639.9 404.33 636.39 395.8 633.29 386.98 630.75 378.15 629.36 369.24 628.71 360.3 628.8 351.38 629.98 342.45 631.72 333.56 633.88 324.72 636.78 315.96 639.77 307.32 642.67 298.76 645.81 290.37 648.5 282.19 650.6 274.13 652.46 266.33 653.47 258.83 653.54 251.48 653.07 244.48 651.55 237.86 648.97 231.4 645.77 225.35 641.53 219.74 636.34 214.28 630.57 209.25 623.97 204.66 616.63 200.18 608.87 196.09 600.53 192.41 591.73 188.74 582.67 185.4 573.28 182.37 563.66 179.24 553.94 176.33 544.08 173.64 534.16 170.73 524.23 167.95 514.3 165.3 504.41 162.36 494.55 159.5 484.75 156.75 475.05 153.69 465.38 150.74 455.81 147.96 446.35 144.95 436.92 142.16 427.58 139.67 418.35 137.11 409.15 134.94 400.04 133.27 391.05 131.71 382.05 130.8 373.38 130.55 365.04 130.56 356.69 131.3 348.65 132.76 340.95 134.54 333.23 137.04 325.83 140.22 318.76 143.69 311.67 147.79 304.89 152.45 298.44 157.3 291.94 162.64 285.74 168.38 279.84 174.17 273.85 180.29 268.12 186.66 262.63 192.95 257 199.43 251.56 206.05 246.29 212.49 240.81 219.04 235.44 225.66 230.17 232.07 224.62 238.55 219.11 245.11 213.63 251.45 207.85 257.89 202.06 264.43 196.28 270.79 190.22 277.3 184.18 283.96 178.21 290.49 172.03 297.22 165.99 304.16 160.16 311.01 154.28 318.1 148.73 325.45 143.6 332.74 138.62 340.32 134.2 348.18 130.45 356 127.04 364.13 124.41 372.58 122.65 381 121.37 389.76 121.01 398.85 121.61" stroke-dasharray="5 8" transform="rotate(8.08, 400, 400)" opacity="0.34"></path><path d="M404.45 132.22C413.28 133.29 422.23 135.2 431.28 137.88 440.36 140.88 449.55 144.51 458.83 148.69 468.13 152.98 477.52 157.68 486.96 162.68 496.4 167.59 505.87 172.7 515.31 177.93 524.71 182.93 534.02 187.98 543.17 193.05 552.17 197.8 560.92 202.56 569.29 207.31 577.4 211.73 585.01 216.18 592.02 220.67 598.6 224.87 604.45 229.17 609.45 233.59 615.68 239.99 622.53 253.59 623.16 260.93 622.37 268.45 617.44 285.03 614.23 294.12 612.54 300.28 611.08 306.77 610.03 313.58 609.98 320.39 610.65 327.51 612.14 334.93 614.88 342.35 618.51 350.05 622.98 358.03 628.53 366.01 634.67 374.25 641.16 382.76 648.11 391.27 654.73 399.84 660.74 408.47 666.38 417.11 670.92 425.81 674.16 434.58 676.46 443.37 677.23 452.25 676.43 461.2 674.51 470.22 671.06 479.32 666.21 488.51 660.41 497.77 653.46 507.13 645.56 516.55 637.1 526.04 628.01 535.58 618.49 545.12 608.84 554.68 599.05 564.18 589.25 573.55 579.65 582.82 570.21 591.86 561.01 600.55 552.18 608.99 543.64 616.95 535.38 624.29 527.52 631.19 519.9 637.33 512.5 642.6 505.43 647.25 498.48 650.92 491.61 653.53 484.96 655.45 478.29 656.3 471.55 656.07 464.95 655.26 458.2 653.49 451.27 650.83 444.4 647.91 437.3 644.36 429.96 640.34 422.64 636.51 415.05 632.55 407.2 628.63 399.34 625.4 391.22 622.53 382.84 620.14 374.47 618.8 366.05 618.12 357.63 618.07 349.24 619.03 340.86 620.49 332.55 622.33 324.29 624.87 316.12 627.52 308.1 630.11 300.16 632.97 292.39 635.48 284.85 637.48 277.42 639.34 270.24 640.46 263.38 640.76 256.65 640.64 250.24 639.57 244.22 637.56 238.32 635 232.81 631.49 227.71 627.09 222.71 622.17 218.12 616.43 213.92 609.97 209.79 603.09 206.01 595.62 202.59 587.65 199.14 579.41 195.98 570.79 193.1 561.88 190.07 552.84 187.24 543.61 184.6 534.26 181.72 524.86 178.95 515.41 176.3 505.96 173.35 496.52 170.48 487.1 167.7 477.74 164.63 468.41 161.68 459.15 158.88 449.99 155.86 440.86 153.07 431.81 150.56 422.88 147.98 413.97 145.79 405.15 144.08 396.47 142.48 387.78 141.49 379.41 141.15 371.37 141.07 363.32 141.68 355.58 142.98 348.16 144.6 340.72 146.92 333.58 149.9 326.76 153.17 319.91 157.05 313.35 161.5 307.08 166.15 300.75 171.28 294.69 176.82 288.88 182.45 282.98 188.41 277.3 194.64 271.82 200.84 266.2 207.23 260.73 213.78 255.39 220.2 249.85 226.73 244.4 233.35 239.02 239.79 233.39 246.3 227.78 252.88 222.2 259.27 216.35 265.75 210.5 272.32 204.68 278.71 198.62 285.22 192.6 291.87 186.68 298.39 180.59 305.07 174.67 311.94 168.98 318.71 163.28 325.69 157.92 332.91 152.99 340.06 148.22 347.47 144.01 355.14 140.45 362.77 137.23 370.7 134.76 378.91 133.11 387.11 131.92 395.61 131.62 404.44 132.22" stroke-dasharray="0 2" transform="rotate(12.12, 400, 400)" opacity="0.44"></path><path d="M409.77 142.83C418.32 143.87 426.96 145.71 435.69 148.28 444.43 151.16 453.25 154.65 462.13 158.67 471.02 162.82 479.94 167.37 488.87 172.23 497.79 177.04 506.67 182.06 515.46 187.22 524.18 192.19 532.75 197.23 541.09 202.31 549.27 207.11 557.13 211.93 564.58 216.75 571.75 221.27 578.4 225.82 584.43 230.39 590.06 234.7 594.98 239.08 599.09 243.55 604.14 250.01 609.28 263.53 609.46 270.72 608.56 278.03 604.23 293.96 601.65 302.63 600.44 308.49 599.48 314.67 598.93 321.14 599.32 327.61 600.36 334.38 602.12 341.44 605.02 348.5 608.68 355.85 613.06 363.49 618.4 371.12 624.23 379.03 630.35 387.22 636.89 395.42 643.11 403.71 648.77 412.07 654.13 420.44 658.5 428.91 661.72 437.45 664.13 446.01 665.16 454.67 664.78 463.41 663.39 472.19 660.6 481.06 656.51 489.99 651.52 498.98 645.42 508.03 638.37 517.11 630.75 526.22 622.44 535.34 613.64 544.41 604.63 553.44 595.36 562.37 585.99 571.1 576.7 579.7 567.47 588.01 558.38 595.93 549.55 603.58 540.93 610.71 532.54 617.22 524.47 623.29 516.62 628.62 508.97 633.11 501.61 637.03 494.39 640.04 487.28 642.07 480.38 643.5 473.51 643.96 466.63 643.45 459.89 642.47 453.07 640.64 446.15 638.04 439.29 635.24 432.28 631.91 425.1 628.16 417.94 624.63 410.58 620.99 403.03 617.39 395.48 614.42 387.72 611.77 379.77 609.54 371.82 608.25 363.88 607.53 355.97 607.37 348.07 608.12 340.23 609.32 332.49 610.86 324.79 613.06 317.21 615.37 309.79 617.65 302.44 620.23 295.28 622.52 288.36 624.39 281.53 626.2 274.96 627.37 268.7 627.84 259.62 627.64 243.33 622.34 236.17 617.22 231.6 613.06 227.38 608.13 223.53 602.5 219.69 596.49 216.17 589.86 212.97 582.73 209.69 575.31 206.67 567.49 203.89 559.34 200.94 551.03 198.17 542.48 195.54 533.76 192.67 524.97 189.91 516.08 187.23 507.14 184.27 498.18 181.39 489.21 178.59 480.27 175.51 471.34 172.55 462.46 169.74 453.65 166.72 444.86 163.93 436.15 161.41 427.54 158.83 418.94 156.63 410.44 154.88 402.07 153.25 393.69 152.21 385.61 151.78 377.85 151.59 370.08 152.08 362.61 153.23 355.44 154.69 348.25 156.82 341.34 159.58 334.72 162.64 328.06 166.3 321.67 170.5 315.53 174.93 309.33 179.83 303.37 185.15 297.62 190.58 291.77 196.36 286.11 202.41 280.62 208.47 274.97 214.74 269.46 221.19 264.05 227.54 258.45 234.03 252.91 240.61 247.44 247.04 241.73 253.56 236.05 260.15 230.4 266.57 224.5 273.07 218.63 279.66 212.81 286.08 206.77 292.61 200.82 299.26 194.97 305.77 189.01 312.43 183.24 319.24 177.72 325.96 172.21 332.87 167.06 339.98 162.34 347.02 157.81 354.29 153.81 361.79 150.45 369.26 147.42 376.98 145.1 384.98 143.58 392.95 142.48 401.21 142.22 409.76 142.82" stroke-dasharray="1 6" transform="rotate(16.16, 400, 400)" opacity="0.15"></path><path d="M414.48 153.43C422.73 154.44 431.04 156.21 439.4 158.67 447.76 161.42 456.17 164.77 464.59 168.62 473 172.62 481.41 177.01 489.76 181.72 498.09 186.4 506.32 191.31 514.41 196.38 522.41 201.29 530.21 206.3 537.72 211.36 545.06 216.19 552.04 221.04 558.58 225.91 564.85 230.52 570.59 235.15 575.71 239.8 582.53 246.43 591.99 259.75 594.51 266.55 595.8 273.28 594.84 287.56 593.07 295.2 591.29 303.01 588.37 319.93 588.04 329.07 588.82 335.25 590.18 341.71 592.19 348.46 595.2 355.2 598.87 362.23 603.14 369.55 608.26 376.85 613.79 384.45 619.55 392.33 625.68 400.21 631.51 408.2 636.82 416.28 641.9 424.37 646.09 432.56 649.26 440.82 651.74 449.11 652.98 457.5 652.96 465.95 652.05 474.43 649.86 482.98 646.46 491.58 642.24 500.21 636.95 508.87 630.74 517.52 623.95 526.17 616.45 534.78 608.41 543.29 600.09 551.74 591.44 560.02 582.6 568.07 573.74 575.95 564.84 583.5 556 590.63 547.32 597.47 538.77 603.79 530.38 609.49 522.24 614.77 514.28 619.34 506.49 623.1 498.95 626.37 491.55 628.78 484.27 630.3 477.18 631.32 470.16 631.46 463.17 630.73 456.31 629.63 449.43 627.78 442.51 625.26 435.65 622.62 428.71 619.5 421.66 616.04 414.64 612.8 407.49 609.47 400.21 606.17 392.94 603.46 385.51 601.01 377.96 598.93 370.41 597.69 362.9 596.95 355.48 596.68 348.06 597.25 340.73 598.2 333.54 599.46 326.37 601.34 319.34 603.32 312.5 605.3 305.71 607.59 299.13 609.64 292.8 611.36 283.52 613.66 266.52 614.95 258.87 613.61 251.65 610.95 238.95 601.19 233.43 594.24 229.84 589.04 226.54 583.23 223.5 576.91 220.36 570.32 217.44 563.29 214.72 555.91 211.83 548.35 209.07 540.52 206.45 532.48 203.58 524.35 200.8 516.07 198.1 507.7 195.13 499.29 192.22 490.83 189.4 482.37 186.32 473.9 183.36 465.44 180.54 457.04 177.54 448.64 174.75 440.3 172.23 432.04 169.67 423.79 167.46 415.62 165.69 407.56 164.03 399.49 162.93 391.72 162.43 384.23 162.15 376.73 162.51 369.51 163.51 362.56 164.81 355.59 166.74 348.88 169.29 342.43 172.12 335.93 175.54 329.67 179.49 323.64 183.67 317.54 188.32 311.63 193.39 305.92 198.59 300.1 204.15 294.44 209.99 288.92 215.87 283.25 221.99 277.68 228.29 272.21 234.54 266.55 240.93 260.95 247.43 255.4 253.83 249.64 260.32 243.91 266.88 238.22 273.3 232.32 279.81 226.46 286.39 220.67 292.83 214.71 299.36 208.84 305.99 203.11 312.51 197.31 319.14 191.71 325.91 186.38 332.59 181.1 339.43 176.18 346.43 171.68 353.38 167.38 360.52 163.61 367.86 160.45 375.17 157.61 382.7 155.46 390.47 154.05 398.22 153.05 406.22 152.83 414.47 153.43" stroke-dasharray="1 4" transform="rotate(20.200000000000003, 400, 400)" opacity="0.15"></path><path d="M418.29 164.04C426.21 165.02 434.16 166.71 442.11 169.05 450.07 171.68 458.01 174.87 465.93 178.55 473.83 182.38 481.67 186.6 489.41 191.14 497.11 195.68 504.67 200.45 512.03 205.41 519.29 210.24 526.3 215.18 532.99 220.2 539.52 225.02 545.65 229.89 551.33 234.79 556.76 239.45 561.67 244.14 565.99 248.85 571.69 255.61 579.36 269.12 581.28 275.98 582.22 282.73 581.31 296.89 579.9 304.38 578.65 311.99 577.05 328.36 577.36 337.16 578.49 343.08 580.13 349.28 582.33 355.75 585.42 362.21 589.06 368.95 593.22 375.96 598.11 382.96 603.34 390.25 608.74 397.82 614.48 405.39 619.92 413.07 624.9 420.84 629.69 428.62 633.69 436.49 636.79 444.45 639.3 452.41 640.71 460.46 640.99 468.56 640.5 476.68 638.84 484.85 636.07 493.04 632.56 501.24 628.05 509.43 622.64 517.58 616.68 525.69 609.99 533.73 602.74 541.62 595.16 549.42 587.19 557.01 578.95 564.33 570.63 571.47 562.19 578.25 553.71 584.6 545.31 590.66 536.97 596.19 528.72 601.11 520.65 605.65 512.71 609.51 504.91 612.63 497.3 615.3 489.82 617.19 482.46 618.27 475.26 618.93 468.14 618.81 461.1 617.94 454.17 616.76 447.25 614.93 440.35 612.52 433.51 610.04 426.64 607.16 419.72 603.97 412.83 601.02 405.87 597.99 398.84 594.98 391.82 592.51 384.71 590.26 377.52 588.32 370.33 587.14 363.24 586.37 356.26 586.02 349.29 586.42 342.45 587.14 335.76 588.14 329.09 589.71 322.58 591.38 316.28 593.06 310.01 595.06 303.96 596.87 298.16 598.4 289.66 600.55 274.11 602.1 267.11 601.19 260.48 599.15 248.74 591.13 243.58 585.22 240.19 580.76 237.04 575.73 234.12 570.18 231.08 564.38 228.23 558.14 225.55 551.52 222.68 544.73 219.93 537.63 217.29 530.29 214.41 522.84 211.61 515.21 208.88 507.46 205.89 499.64 202.97 491.74 200.13 483.8 197.05 475.84 194.09 467.85 191.27 459.89 188.3 451.93 185.53 443.99 183.02 436.11 180.48 428.23 178.28 420.41 176.5 412.67 174.82 404.93 173.68 397.45 173.1 390.23 172.74 383 172.98 376.01 173.83 369.27 174.96 362.51 176.7 355.97 179.02 349.67 181.62 343.31 184.79 337.17 188.47 331.21 192.38 325.19 196.76 319.34 201.56 313.64 206.5 307.85 211.8 302.18 217.41 296.62 223.07 290.93 228.98 285.33 235.1 279.8 241.19 274.11 247.45 268.46 253.83 262.87 260.14 257.1 266.55 251.36 273.04 245.66 279.43 239.8 285.9 234 292.44 228.27 298.87 222.42 305.39 216.69 311.98 211.11 318.48 205.5 325.08 200.1 331.78 194.99 338.41 189.94 345.17 185.26 352.07 181.01 358.92 176.96 365.93 173.42 373.11 170.46 380.25 167.81 387.59 165.82 395.12 164.53 402.63 163.62 410.35 163.44 418.28 164.04" stroke-dasharray="11 11" transform="rotate(24.24, 400, 400)" opacity="0.72"></path><path d="M420.96 174.65C428.54 175.59 436.09 177.2 443.6 179.43 451.11 181.92 458.57 184.96 465.95 188.46 473.3 192.11 480.56 196.15 487.66 200.51 494.72 204.88 501.58 209.51 508.22 214.32 514.75 219.04 521 223.89 526.9 228.84 532.65 233.62 538 238.47 542.89 243.36 549.65 250.41 560.13 264.38 563.72 271.33 566.38 278.08 568.65 291.79 568.49 298.84 568.01 305.89 566.33 320.75 565.68 328.64 565.8 333.91 566.17 339.43 566.88 345.17 568.31 350.89 570.19 356.86 572.54 363.08 575.67 369.28 579.28 375.74 583.3 382.47 587.96 389.18 592.88 396.17 597.93 403.42 603.28 410.67 608.36 418.02 613 425.46 617.5 432.9 621.31 440.43 624.3 448.02 626.82 455.62 628.35 463.29 628.88 470.98 628.75 478.68 627.56 486.41 625.37 494.12 622.51 501.82 618.72 509.48 614.08 517.06 608.91 524.59 603.03 532 596.56 539.23 589.75 546.35 582.51 553.23 574.94 559.82 567.23 566.21 559.33 572.23 551.33 577.8 543.33 583.11 535.32 587.89 527.34 592.09 519.47 595.95 511.68 599.17 503.98 601.69 496.43 603.84 488.98 605.29 481.64 606 474.44 606.38 467.31 606.06 460.27 605.08 453.33 603.87 446.44 602.1 439.59 599.82 432.8 597.52 426.02 594.87 419.24 591.96 412.49 589.29 405.71 586.54 398.92 583.82 392.14 581.58 385.32 579.52 378.48 577.72 371.63 576.59 364.92 575.81 358.36 575.38 351.81 575.62 345.4 576.14 339.18 576.9 332.96 578.18 326.94 579.55 321.12 580.94 312.54 583.43 296.61 587.49 289.31 588.63 282.32 589.13 269.75 587 264.15 584.24 258.78 580.46 249.14 569.53 244.79 562.54 241.82 557.49 239 551.99 236.33 546.12 233.46 540.07 230.7 533.7 228.04 527.07 225.14 520.32 222.31 513.36 219.55 506.23 216.55 499.05 213.61 491.74 210.76 484.34 207.7 476.93 204.75 469.45 201.95 461.96 199.01 454.46 196.27 446.96 193.79 439.48 191.27 432 189.09 424.55 187.3 417.15 185.62 409.75 184.44 402.57 183.8 395.62 183.36 388.65 183.49 381.9 184.19 375.36 185.15 368.8 186.7 362.43 188.8 356.26 191.17 350.04 194.07 344 197.47 338.12 201.1 332.17 205.19 326.36 209.69 320.69 214.35 314.92 219.37 309.25 224.69 303.68 230.1 297.99 235.77 292.37 241.65 286.81 247.55 281.11 253.62 275.46 259.83 269.86 266 264.1 272.28 258.4 278.66 252.74 284.96 246.96 291.35 241.25 297.81 235.64 304.19 229.94 310.64 224.37 317.17 218.98 323.61 213.58 330.14 208.42 336.76 203.54 343.32 198.76 349.98 194.33 356.76 190.33 363.49 186.53 370.35 183.23 377.34 180.48 384.31 178.02 391.43 176.18 398.7 175.01 405.95 174.19 413.37 174.06 420.95 174.65" stroke-dasharray="2 8" transform="rotate(28.28, 400, 400)" opacity="0.20"></path><path d="M422.33 185.25C429.53 186.16 436.66 187.69 443.71 189.8 450.76 192.16 457.71 195.03 464.53 198.35 471.33 201.81 477.99 205.66 484.45 209.82 490.87 214.02 497.06 218.46 502.99 223.11 508.83 227.7 514.36 232.43 519.53 237.28 524.57 241.99 529.2 246.79 533.4 251.64 539.19 258.68 548.01 272.72 550.98 279.72 553.21 286.54 555.19 300.33 555.18 307.39 555.01 314.41 554.35 329.09 554.32 336.82 555.19 344.65 559.31 361.32 562.82 370.19 565.97 376.15 569.5 382.36 573.37 388.8 577.79 395.24 582.41 401.92 587.13 408.85 592.1 415.77 596.81 422.78 601.13 429.86 605.35 436.94 608.94 444.09 611.82 451.28 614.3 458.48 615.92 465.71 616.65 472.95 616.82 480.18 616.05 487.41 614.36 494.59 612.1 501.75 608.96 508.84 605.04 515.81 600.62 522.72 595.52 529.47 589.83 536.02 583.8 542.44 577.31 548.61 570.45 554.46 563.42 560.12 556.14 565.4 548.69 570.24 541.2 574.83 533.63 578.92 526.03 582.46 518.48 585.7 510.96 588.34 503.49 590.36 496.12 592.06 488.82 593.12 481.61 593.54 474.49 593.69 467.45 593.23 460.5 592.19 453.63 590.99 446.82 589.3 440.07 587.17 433.38 585.06 426.72 582.65 420.1 580.02 413.51 577.61 406.93 575.14 400.37 572.68 393.83 570.65 387.29 568.78 380.77 567.11 374.25 566.04 367.89 565.25 361.72 564.76 355.54 564.86 349.54 565.2 343.73 565.73 335.13 567.29 319 571.03 311.51 572.81 304.28 574.52 291.07 576.1 285.1 575.71 279.35 574.57 268.99 569.25 264.32 565.08 259.7 560.04 251.09 547.27 247.01 539.7 244.14 534.37 241.35 528.71 238.66 522.76 235.74 516.71 232.88 510.41 230.1 503.93 227.09 497.38 224.15 490.67 221.3 483.84 218.26 476.99 215.34 470.05 212.56 463.05 209.66 456.04 206.97 449 204.52 441.94 202.04 434.88 199.89 427.82 198.11 420.77 196.42 413.72 195.22 406.85 194.52 400.17 194.01 393.48 194.03 386.96 194.59 380.63 195.4 374.27 196.75 368.07 198.62 362.03 200.75 355.95 203.39 350.02 206.5 344.22 209.84 338.35 213.62 332.6 217.81 326.96 222.15 321.24 226.86 315.59 231.88 310.03 236.99 304.36 242.38 298.76 247.99 293.21 253.64 287.54 259.47 281.92 265.46 276.36 271.44 270.67 277.54 265.04 283.75 259.48 289.91 253.82 296.16 248.24 302.49 242.79 308.76 237.27 315.1 231.91 321.51 226.74 327.86 221.59 334.29 216.68 340.78 212.07 347.23 207.55 353.76 203.4 360.38 199.66 366.96 196.11 373.65 193.04 380.43 190.51 387.19 188.24 394.07 186.56 401.05 185.5 408.03 184.76 415.12 184.67 422.32 185.25" stroke-dasharray="10 10" transform="rotate(32.32, 400, 400)" opacity="0.08"></path><path d="M422.31 195.86C429.11 196.73 435.8 198.18 442.38 200.17 448.94 202.39 455.37 205.09 461.64 208.22 467.89 211.49 473.95 215.13 479.8 219.09 485.6 223.09 491.15 227.34 496.42 231.8 501.61 236.23 506.48 240.82 510.99 245.52 515.4 250.14 519.41 254.84 523.01 259.62 527.99 266.6 535.5 280.61 538.03 287.62 539.99 294.47 541.94 308.31 542.16 315.36 542.37 322.36 542.73 336.88 543.27 344.46 544.64 352.12 549.5 368.29 553.16 376.84 556.29 382.59 559.73 388.54 563.44 394.71 567.61 400.86 571.94 407.24 576.32 413.83 580.93 420.42 585.29 427.07 589.29 433.76 593.21 440.46 596.59 447.2 599.34 453.96 601.76 460.71 603.43 467.48 604.31 474.22 604.73 480.95 604.31 487.65 603.07 494.27 601.33 500.85 598.8 507.33 595.53 513.67 591.82 519.94 587.46 526.03 582.53 531.88 577.26 537.62 571.52 543.08 565.4 548.21 559.08 553.17 552.46 557.76 545.64 561.91 538.73 565.84 531.69 569.3 524.57 572.24 517.45 574.93 510.31 577.07 503.18 578.65 496.1 579.97 489.05 580.73 482.07 580.91 475.15 580.89 468.3 580.34 461.52 579.28 454.8 578.12 448.14 576.54 441.56 574.58 435.02 572.67 428.53 570.49 422.1 568.13 415.7 565.98 409.34 563.77 403.03 561.56 396.73 559.75 390.47 558.05 384.26 556.5 378.05 555.49 372.02 554.7 366.2 554.16 357.55 554.22 341.26 555.82 333.64 557.09 326.23 558.77 312.55 561.64 306.28 562.52 294.7 562.49 279.28 557.59 274.74 554.09 270.22 549.85 261.66 538.89 257.55 532.29 254.67 527.63 251.86 522.63 249.13 517.34 246.19 511.95 243.32 506.31 240.52 500.45 237.51 494.53 234.58 488.43 231.74 482.18 228.74 475.9 225.85 469.5 223.11 463.01 220.27 456.5 217.62 449.93 215.22 443.31 212.8 436.69 210.68 430.02 208.92 423.34 207.24 416.66 206.02 410.12 205.27 403.72 204.69 397.32 204.62 391.05 205.05 384.92 205.69 378.78 206.85 372.76 208.51 366.87 210.39 360.95 212.76 355.13 215.59 349.43 218.62 343.67 222.09 338 225.94 332.42 229.96 326.76 234.33 321.18 239.01 315.66 243.8 310.06 248.86 304.5 254.16 299.01 259.52 293.42 265.07 287.88 270.78 282.4 276.51 276.83 282.38 271.32 288.36 265.89 294.33 260.4 300.39 255.01 306.52 249.75 312.63 244.46 318.81 239.34 325.04 234.42 331.24 229.54 337.51 224.9 343.84 220.57 350.13 216.34 356.48 212.47 362.9 208.99 369.3 205.71 375.77 202.88 382.3 200.55 388.83 198.48 395.43 196.95 402.1 196 408.76 195.34 415.5 195.29 422.3 195.86" stroke-dasharray="10 2" transform="rotate(36.36, 400, 400)" opacity="0.58"></path><path d="M420.9 206.47C427.28 207.29 433.52 208.66 439.61 210.53 445.69 212.61 451.61 215.14 457.34 218.08 468.72 224.34 479.24 231.9 488.65 240.4 497.78 248.84 505.61 257.9 511.95 267.31 517.87 276.31 522.25 285.57 525.05 295.01 527.69 303.96 529.09 313.18 529.53 322.67 530.6 331.79 531.46 341.36 532.53 351.4 535.26 361.25 538.89 371.72 543.55 382.82 546.64 388.35 549.97 394.06 553.5 399.94 557.42 405.81 561.46 411.87 565.51 418.11 569.77 424.35 573.79 430.63 577.47 436.92 581.11 443.22 584.26 449.53 586.87 455.82 591.23 468.4 592.81 480.87 591.51 492.99 588.51 504.93 582.73 516.3 574.63 526.78 565.28 536.8 554.22 545.6 542.04 552.85 529.41 559.32 516.19 563.99 502.79 566.63 489.44 568.46 476.12 568.35 463.04 566.4 450.12 564.17 437.41 560.69 425 556.31 418.82 554.41 412.71 552.45 406.66 550.47 400.62 548.85 394.64 547.31 388.73 545.89 379.96 544.55 363.44 543.46 355.69 543.62 345.47 545.07 336.07 546.56 327.56 547.76 318.97 549.55 311.21 550.33 304.31 549.83 297.2 549.1 290.8 546.7 285.07 542.63 278.91 538 273.2 531.7 267.91 523.94 261.94 515.72 256.22 506.24 250.78 495.8 244.65 485.11 238.85 473.68 233.59 461.73 230.82 455.74 228.23 449.65 225.89 443.47 223.53 437.3 221.46 431.05 219.72 424.75 218.07 418.45 216.84 412.24 216.05 406.14 215.41 400.04 215.25 394.04 215.55 388.14 216.75 376.3 219.87 364.81 224.74 353.69 230.39 342.4 237.62 331.35 246.13 320.56 255.12 309.51 265.12 298.62 275.87 288 286.76 277.14 298.19 266.58 309.98 256.55 321.71 246.51 333.75 237.24 345.96 229.06 358.1 221.34 370.46 215.07 382.97 210.61 389.22 208.72 395.51 207.34 401.83 206.5 408.15 205.93 414.51 205.91 420.89 206.47" stroke-dasharray="4 1" transform="rotate(40.400000000000006, 400, 400)" opacity="0.82"></path><path d="M418.2 217.08C430.08 218.87 441.31 222.59 451.75 227.92 462.1 233.77 471.54 240.88 479.88 248.9 487.99 256.96 494.88 265.64 500.41 274.73 505.67 283.52 509.59 292.6 512.2 301.88 514.8 310.76 516.43 319.89 517.33 329.26 518.92 338.31 520.4 347.73 522.11 357.53 525.31 367.16 529.24 377.3 533.99 387.95 540.41 398.54 547.47 409.73 554.71 421.49 562.64 433.25 569.37 445.03 574.41 456.68 578.64 468.3 580.43 479.69 579.71 490.63 577.56 501.39 572.92 511.5 566.12 520.68 558.18 529.44 548.58 537 537.78 543.1 526.46 548.54 514.43 552.34 502.07 554.35 489.65 555.73 477.13 555.43 464.74 553.54 452.45 551.52 440.31 548.42 428.46 544.54 416.68 541.45 405.12 538.27 393.9 535.29 382.67 533.9 372.25 533.05 362.66 532.68 353.02 533.68 344.18 534.7 336.15 535.48 328.02 536.87 320.65 537.42 314.02 536.89 307.16 536.29 300.91 534.26 295.23 530.77 289.12 526.89 283.4 521.5 278.04 514.75 272.07 507.63 266.34 499.3 260.89 489.98 254.85 480.46 249.15 470.12 244 459.19 238.57 448.2 233.97 436.72 230.53 424.91 227.38 413.09 225.9 401.5 226.1 390.22 227 378.9 229.68 367.81 233.99 357 239.01 346.07 245.53 335.3 253.29 324.78 261.53 314.05 270.79 303.49 280.8 293.23 291.01 282.81 301.8 272.74 312.95 263.23 324.13 253.8 335.62 245.14 347.25 237.56 358.87 230.45 370.66 224.73 382.51 220.69 394.36 217.51 406.3 216.24 418.18 217.07" stroke-dasharray="1 9" transform="rotate(44.44, 400, 400)" opacity="0.46"></path><path d="M414.36 227.68C425.35 229.37 435.64 232.82 445.1 237.75 454.48 243.19 462.95 249.82 470.36 257.34 477.62 264.95 483.74 273.21 488.66 281.9 493.43 290.39 497.07 299.21 499.63 308.24 502.31 316.96 504.24 325.93 505.62 335.1 507.7 344.01 509.74 353.23 512 362.75 515.56 372.12 519.71 381.89 524.48 392.06 530.63 402.18 537.24 412.78 543.9 423.79 551.15 434.8 557.31 445.72 561.97 456.4 566.02 467.03 567.95 477.35 567.7 487.13 566.27 496.74 562.62 505.64 557.02 513.6 550.4 521.2 542.18 527.65 532.76 532.73 522.8 537.28 512.03 540.36 500.81 541.86 489.45 542.91 477.87 542.5 466.31 540.73 454.79 538.96 443.36 536.25 432.16 532.85 421 530.18 410.06 527.38 399.44 524.68 388.82 523.35 378.98 522.4 369.93 521.81 360.82 522.41 352.45 523.01 344.83 523.38 337.08 524.37 330 524.65 323.58 524.04 316.91 523.47 310.76 521.69 305.11 518.65 299.04 515.35 293.31 510.71 287.91 504.84 281.96 498.68 276.25 491.37 270.83 483.1 264.91 474.64 259.35 465.36 254.35 455.41 249.12 445.4 244.68 434.83 241.33 423.82 238.25 412.81 236.71 401.89 236.72 391.16 237.34 380.41 239.59 369.8 243.34 359.39 247.75 348.88 253.55 338.51 260.54 328.34 268 318.05 276.46 307.93 285.66 298.12 295.11 288.24 305.15 278.73 315.58 269.82 326.08 261.04 336.9 253.04 347.86 246.08 358.84 239.59 369.96 234.41 381.08 230.79 392.22 227.94 403.36 226.85 414.36 227.68" stroke-dasharray="9 3" transform="rotate(48.48, 400, 400)" opacity="0.23"></path><path d="M409.62 238.29C419.72 239.86 429.1 243.04 437.65 247.59 446.14 252.59 453.76 258.72 460.39 265.72 466.92 272.84 472.44 280.62 476.93 288.85 481.36 296.96 484.86 305.43 487.48 314.12 490.31 322.59 492.57 331.31 494.42 340.2 496.95 348.89 499.48 357.84 502.19 367 506.01 376.06 510.28 385.43 515 395.08 520.86 404.69 527 414.65 533.1 424.89 539.69 435.13 545.28 445.17 549.56 454.88 553.38 464.54 555.38 473.8 555.49 482.46 554.66 490.97 551.88 498.75 547.33 505.59 541.92 512.13 535.01 517.59 526.91 521.8 518.3 525.61 508.82 528.1 498.8 529.22 488.59 530.03 478.06 529.6 467.45 528.01 456.82 526.48 446.19 524.16 435.72 521.22 425.29 518.95 415.01 516.51 405.03 514.07 395.03 512.81 385.75 511.79 377.2 511 368.58 511.26 360.64 511.47 353.36 511.48 345.95 512.07 339.11 512.07 332.85 511.33 326.34 510.71 320.28 509.07 314.64 506.36 308.62 503.5 302.9 499.47 297.48 494.34 291.59 488.99 285.94 482.59 280.6 475.25 274.84 467.78 269.46 459.47 264.62 450.46 259.62 441.4 255.38 431.72 252.14 421.53 249.15 411.34 247.57 401.14 247.39 391.03 247.75 380.9 249.6 370.83 252.82 360.91 256.62 350.93 261.72 341.04 267.93 331.35 274.59 321.58 282.2 312 290.55 302.75 299.17 293.49 308.38 284.63 317.99 276.36 327.72 268.28 337.77 260.96 347.96 254.65 358.19 248.78 368.55 244.13 378.87 240.92 389.22 238.4 399.53 237.47 409.62 238.29" stroke-dasharray="8 3" transform="rotate(52.52, 400, 400)" opacity="0.64"></path><path d="M404.29 248.9C413.5 250.35 422 253.26 429.73 257.41 437.42 261.98 444.28 267.6 450.28 274.05 456.21 280.64 461.28 287.89 465.47 295.6 469.68 303.25 473.13 311.28 475.9 319.55 478.91 327.67 481.49 336.03 483.78 344.55 486.68 352.93 489.6 361.52 492.65 370.28 496.64 378.95 500.96 387.85 505.55 396.94 511.08 406 516.75 415.29 522.29 424.75 528.25 434.2 533.29 443.35 537.18 452.1 540.74 460.82 542.74 469.05 543.12 476.66 542.77 484.14 540.72 490.89 537.1 496.74 532.77 502.34 527.05 506.95 520.21 510.43 512.89 513.61 504.69 515.65 495.89 516.5 486.88 517.16 477.47 516.76 467.86 515.37 458.22 514.11 448.48 512.16 438.83 509.66 429.18 507.75 419.63 505.64 410.29 503.47 400.96 502.27 392.24 501.21 384.16 500.27 376.03 500.23 368.47 500.1 361.5 499.78 354.4 500 347.79 499.72 341.66 498.82 335.31 498.1 329.34 496.52 323.73 494.04 317.79 491.49 312.11 487.94 306.73 483.42 300.94 478.75 295.4 473.13 290.19 466.63 284.63 460.02 279.46 452.61 274.83 444.49 270.08 436.33 266.05 427.53 262.95 418.17 260.06 408.81 258.46 399.35 258.13 389.91 258.26 380.47 259.73 371.02 262.44 361.68 265.66 352.31 270.07 343.01 275.51 333.89 281.36 324.75 288.11 315.8 295.57 307.19 303.31 298.62 311.63 290.47 320.36 282.91 329.23 275.55 338.42 268.93 347.75 263.26 357.16 258.02 366.68 253.89 376.15 251.07 385.65 248.87 395.09 248.1 404.29 248.9" stroke-dasharray="10 10" transform="rotate(56.56, 400, 400)" opacity="0.83"></path><path d="M398.7 259.5C407.02 260.84 414.7 263.48 421.68 267.23 428.63 271.37 434.85 276.47 440.32 282.34 445.77 288.38 450.49 295.05 454.49 302.18 458.56 309.31 462.03 316.82 464.96 324.58 468.16 332.26 471.04 340.17 473.69 348.23 476.89 356.2 480.1 364.35 483.39 372.61 487.44 380.82 491.71 389.19 496.13 397.66 501.29 406.12 506.48 414.71 511.48 423.36 516.83 432 521.34 440.28 524.84 448.11 528.11 455.9 530.06 463.17 530.62 469.81 529.9 479.25 520.64 493.86 512.63 498.69 506.52 501.38 499.56 503.07 491.96 503.75 484.15 504.32 475.87 504 467.33 502.85 458.72 501.85 449.94 500.26 441.15 498.17 432.35 496.59 423.57 494.79 414.92 492.86 406.27 491.74 398.13 490.65 390.53 489.61 382.89 489.31 375.72 488.9 369.04 488.29 362.25 488.17 355.87 487.62 349.89 486.55 343.72 485.69 337.86 484.12 332.32 481.79 326.5 479.46 320.93 476.27 315.63 472.24 310.01 468.13 304.63 463.16 299.59 457.4 294.29 451.56 289.37 444.96 284.98 437.68 280.5 430.37 276.7 422.42 273.75 413.89 271 405.36 269.4 396.68 268.94 387.97 268.86 379.27 269.99 370.52 272.22 361.84 274.89 353.16 278.64 344.54 283.32 336.09 288.37 327.65 294.26 319.42 300.83 311.52 307.66 303.71 315.05 296.31 322.85 289.49 330.8 282.88 339.06 276.97 347.5 271.95 356 267.31 364.62 263.69 373.21 261.26 381.82 259.35 390.37 258.73 398.7 259.5" stroke-dasharray="1 6" transform="rotate(60.599999999999994, 400, 400)" opacity="0.57"></path><path d="M393.18 270.11C400.65 271.33 407.56 273.7 413.85 277.06 420.13 280.76 425.8 285.34 430.83 290.62 435.87 296.08 440.32 302.14 444.2 308.64 448.17 315.18 451.68 322.1 454.77 329.28 458.12 336.42 461.23 343.79 464.16 351.3 467.56 358.76 470.95 366.38 474.37 374.07 478.4 381.73 482.55 389.5 486.73 397.31 491.5 405.11 496.21 412.97 500.68 420.8 505.43 428.64 509.43 436.06 512.55 442.99 516.43 453.08 517.8 470.19 515.17 476.91 510.71 482.65 496.3 489.72 486.94 491.03 480.29 491.58 473.14 491.37 465.67 490.46 458.11 489.72 450.32 488.46 442.43 486.74 434.53 485.47 426.56 483.95 418.62 482.25 410.69 481.22 403.16 480.13 396.05 479.02 388.91 478.51 382.15 477.86 375.79 477.02 369.33 476.6 363.2 475.81 357.41 474.58 351.46 473.57 345.77 471.96 340.36 469.72 334.72 467.53 329.31 464.62 324.16 460.99 318.77 457.33 313.63 452.92 308.81 447.8 303.81 442.63 299.18 436.77 295.06 430.27 290.88 423.75 287.33 416.61 284.56 408.91 281.95 401.22 280.37 393.34 279.81 385.41 279.56 377.48 280.38 369.49 282.18 361.56 284.33 353.63 287.45 345.76 291.41 338.07 295.69 330.41 300.74 322.96 306.41 315.84 312.32 308.82 318.78 302.21 325.62 296.16 332.62 290.31 339.93 285.11 347.42 280.73 354.98 276.68 362.67 273.55 370.35 271.49 378.05 269.86 385.71 269.37 393.18 270.11" stroke-dasharray="3 10" transform="rotate(64.64, 400, 400)" opacity="0.10"></path><path d="M388.09 280.72C394.73 281.82 400.9 283.92 406.57 286.9 412.23 290.16 417.4 294.21 422.06 298.9 426.74 303.76 430.97 309.18 434.74 315.02 438.62 320.92 442.15 327.19 445.36 333.71 448.81 340.23 452.07 346.98 455.18 353.86 458.67 360.72 462.14 367.71 465.58 374.76 469.5 381.79 473.44 388.9 477.35 395.99 481.69 403.09 485.92 410.19 489.88 417.2 494.05 424.21 497.55 430.79 500.29 436.88 503.78 445.73 505.47 460.5 503.56 466.23 500.17 471.14 488.57 477.21 480.8 478.39 475.25 478.95 469.18 478.88 462.75 478.21 456.24 477.71 449.44 476.75 442.47 475.39 435.48 474.38 428.35 473.13 421.17 471.64 413.99 470.7 407.09 469.63 400.51 468.48 393.92 467.83 387.6 467 381.6 465.97 372.61 464.8 355.75 460.95 347.81 457.95 342.43 455.84 337.26 453.14 332.34 449.84 327.24 446.54 322.38 442.6 317.85 438.04 313.19 433.46 308.89 428.27 305.07 422.5 301.22 416.71 297.94 410.36 295.37 403.49 292.92 396.62 291.39 389.57 290.76 382.45 290.37 375.33 290.91 368.16 292.31 361.02 294 353.91 296.53 346.86 299.82 339.98 303.36 333.15 307.6 326.53 312.42 320.23 317.43 314.04 322.95 308.24 328.85 302.95 334.88 297.86 341.23 293.37 347.77 289.61 354.37 286.13 361.12 283.47 367.88 281.75 374.67 280.39 381.45 280.01 388.09 280.72" stroke-dasharray="9 10" transform="rotate(68.68, 400, 400)" opacity="0.66"></path><path d="M383.73 291.32C395.41 293.58 405.65 299.17 414.24 307.2 422.98 315.82 430.46 326.37 436.78 337.96 443.91 349.63 450.64 362.15 456.99 374.83 464.77 387.49 472.39 400.34 479.07 412.73 486.42 425.11 491.06 435.77 492.63 444.32 493.44 452.72 490.75 458.85 485.02 462.45 478.47 465.94 469.35 467.13 458.54 466.13 447.48 465.75 435.19 463.98 422.39 461.04 409.59 459.75 397.47 457.76 386.36 455.14 375.04 453.7 364.38 450.9 354.66 446.56 344.47 442.56 334.97 436.48 326.71 428.38 318.11 420.25 310.97 410.01 306.17 397.89 301.81 385.78 300.74 373.04 302.64 360.44 305.42 347.96 311.08 335.79 318.91 324.78 327.39 314.19 337.62 305.16 348.76 298.6 360.13 293 372.05 290.34 383.73 291.32" stroke-dasharray="11 4" transform="rotate(72.72, 400, 400)" opacity="0.86"></path><path d="M380.39 301.93C390.52 303.87 399.63 308.65 407.53 315.53 415.58 322.92 422.74 332.03 429.01 342.11 435.93 352.32 442.49 363.32 448.59 374.45 455.71 385.6 462.5 396.87 468.27 407.62 474.54 418.37 478.49 427.53 479.9 434.81 479.87 444.63 465.68 454.16 453.05 454.21 443.88 454.17 433.42 452.88 422.23 450.43 411.03 449.23 400.18 447.22 390.02 444.54 379.74 442.77 369.93 439.83 360.92 435.64 351.6 431.77 342.92 426.22 335.4 419.02 327.69 411.85 321.3 402.91 316.98 392.4 313 381.89 311.82 370.87 313.17 360.02 315.17 349.29 319.62 338.9 325.97 329.58 332.82 320.65 341.25 313.11 350.59 307.72 360.11 303.1 370.26 300.98 380.39 301.93" stroke-dasharray="3 10" transform="rotate(76.76, 400, 400)" opacity="0.77"></path><path d="M378.27 312.54C386.91 314.18 394.9 318.17 402.06 323.91 409.33 330.07 416.02 337.73 422.04 346.25 428.53 354.92 434.69 364.3 440.34 373.81 446.68 383.36 452.58 392.98 457.46 402.13 462.7 411.27 465.98 419.01 467.18 425.15 467.44 433.51 456.55 442.02 446.38 442.47 438.94 442.71 430.24 441.82 420.68 439.82 411.11 438.73 401.63 436.78 392.6 434.16 383.5 432.21 374.72 429.25 366.61 425.26 358.31 421.56 350.6 416.52 343.94 410.2 337.18 403.92 331.6 396.23 327.78 387.29 324.23 378.35 323.02 369.05 323.91 359.97 325.24 350.98 328.63 342.36 333.64 334.72 339 327.38 345.76 321.27 353.4 316.98 361.18 313.28 369.63 311.64 378.27 312.54" stroke-dasharray="6 4" transform="rotate(80.80000000000001, 400, 400)" opacity="0.99"></path><path d="M377.5 323.15C384.68 324.49 391.53 327.71 397.84 332.35 404.24 337.32 410.28 343.53 415.81 350.49 421.65 357.58 427.2 365.29 432.22 373.13 437.68 381.02 442.65 388.97 446.65 396.53 452.22 407.28 454.86 422.59 451.74 426.95 446.65 430.16 429.28 431.07 417.84 429.22 409.92 428.25 401.91 426.45 394.16 423.99 386.39 422.01 378.81 419.15 371.77 415.47 364.65 412.02 358.03 407.53 352.32 402.09 346.59 396.68 341.86 390.21 338.59 382.81 335.51 375.42 334.33 367.82 334.85 360.47 335.66 353.2 338.13 346.31 341.95 340.27 345.99 334.46 351.24 329.69 357.31 326.4 363.47 323.54 370.31 322.33 377.5 323.15" stroke-dasharray="11 10" transform="rotate(84.84, 400, 400)" opacity="0.10"></path><path d="M378.12 333.75C389.64 336.18 400.83 344.22 410.25 354.9 420.42 366.04 429.75 379.11 435.85 391.11 442.56 403.09 443.77 411.57 439.92 415.76 435.64 420.29 426.45 421.38 413.9 418.61 401.34 417.39 388.03 412.96 376.47 406.32 364.82 400.3 354.83 390.97 349.4 379.2 344.46 367.43 345.46 355.53 350.91 346.3 356.86 337.7 366.6 332.69 378.12 333.75" stroke-dasharray="3 9" transform="rotate(88.88, 400, 400)" opacity="0.93"></path><path d="M380.11 344.36C388.79 346.09 397.64 351.86 405.26 359.6 413.27 367.64 420.49 377.2 425.04 386.13 430.34 398.3 421.7 409.32 409.09 408 399.78 406.96 389.66 403.23 380.8 397.81 371.96 392.77 364.37 385.43 360.2 376.63 356.32 367.84 356.76 359.29 360.5 352.87 364.48 346.81 371.43 343.41 380.11 344.36" stroke-dasharray="10 1" transform="rotate(92.92, 400, 400)" opacity="0.19"></path><path d="M383.33 354.97C395 357.48 408.42 370.02 414.23 381.84 420.63 393.66 415.97 400.08 403.72 397.4 391.45 396.22 376.76 386.94 371.01 375.24 365.78 363.53 371.66 353.87 383.33 354.97" stroke-dasharray="5 1" transform="rotate(96.96, 400, 400)" opacity="0.58"></path></g></svg>